<svg viewBox="0 0 1920 600" xmlns="http://www.w3.org/2000/svg">
  <defs>
    <linearGradient id="gradient1" x1="0%" y1="0%" x2="100%" y2="100%">
      <stop offset="0%" style="stop-color:#667eea;stop-opacity:1" />
      <stop offset="100%" style="stop-color:#764ba2;stop-opacity:1" />
    </linearGradient>
    <pattern id="pattern1" x="0" y="0" width="100" height="100" patternUnits="userSpaceOnUse">
      <circle cx="50" cy="50" r="1" fill="white" opacity="0.3" />
    </pattern>
  </defs>
  
  <rect width="1920" height="600" fill="url(#gradient1)" />
  <rect width="1920" height="600" fill="url(#pattern1)" />
  
  <g transform="translate(960, 300)">
    <circle cx="0" cy="0" r="200" fill="white" opacity="0.1" />
    <circle cx="0" cy="0" r="150" fill="white" opacity="0.1" />
    <circle cx="0" cy="0" r="100" fill="white" opacity="0.1" />
  </g>
  
  <text x="960" y="240" text-anchor="middle" fill="white" font-size="90" font-weight="bold" font-family="Arial, sans-serif">
    MEGA SALE
  </text>
  <text x="960" y="340" text-anchor="middle" fill="white" font-size="45" font-weight="300" font-family="Arial, sans-serif">
    Up to 70% OFF on All Products
  </text>
  
  <g transform="translate(100, 300)" opacity="0.3">
    <rect x="0" y="-50" width="80" height="100" fill="white" rx="10" />
    <rect x="10" y="-40" width="60" height="80" fill="url(#gradient1)" rx="5" />
  </g>
  
  <g transform="translate(1720, 300)" opacity="0.3">
    <circle cx="0" cy="0" r="50" fill="white" />
    <circle cx="0" cy="0" r="40" fill="url(#gradient1)" />
  </g>
  
  <g transform="translate(300, 100)" opacity="0.2">
    <polygon points="0,0 60,0 30,52" fill="white" />
  </g>
  
  <g transform="translate(1600, 100)" opacity="0.2">
    <polygon points="0,0 50,0 25,43" fill="white" />
  </g>
</svg>