<svg viewBox="0 0 1920 600" xmlns="http://www.w3.org/2000/svg">
  <defs>
    <linearGradient id="gradient3" x1="0%" y1="0%" x2="100%" y2="100%">
      <stop offset="0%" style="stop-color:#4facfe;stop-opacity:1" />
      <stop offset="100%" style="stop-color:#00f2fe;stop-opacity:1" />
    </linearGradient>
    <pattern id="grid3" x="0" y="0" width="40" height="40" patternUnits="userSpaceOnUse">
      <path d="M 40 0 L 0 0 0 40" fill="none" stroke="white" stroke-width="0.5" opacity="0.2" />
    </pattern>
  </defs>
  
  <rect width="1920" height="600" fill="url(#gradient3)" />
  <rect width="1920" height="600" fill="url(#grid3)" />
  
  <g transform="translate(960, 300)">
    <rect x="-300" y="-150" width="600" height="300" fill="white" opacity="0.05" rx="20" />
    <rect x="-250" y="-100" width="500" height="200" fill="white" opacity="0.05" rx="15" />
  </g>
  
  <circle cx="200" cy="200" r="80" fill="white" opacity="0.1" />
  <circle cx="1720" cy="400" r="100" fill="white" opacity="0.1" />
  <circle cx="300" cy="450" r="60" fill="white" opacity="0.1" />
  <circle cx="1620" cy="150" r="70" fill="white" opacity="0.1" />
  
  <text x="960" y="210" text-anchor="middle" fill="white" font-size="40" font-weight="300" letter-spacing="3" font-family="Arial, sans-serif">
    BEST DEALS
  </text>
  <text x="960" y="290" text-anchor="middle" fill="white" font-size="80" font-weight="bold" font-family="Arial, sans-serif">
    PREMIUM ELECTRONICS
  </text>
  <text x="960" y="370" text-anchor="middle" fill="white" font-size="38" font-weight="300" font-family="Arial, sans-serif">
    Latest Tech at Unbeatable Prices
  </text>
  
  <g transform="translate(100, 100)" opacity="0.2">
    <rect x="0" y="0" width="100" height="60" fill="white" rx="5" />
    <rect x="10" y="10" width="80" height="40" fill="url(#gradient3)" rx="3" />
  </g>
  
  <g transform="translate(1700, 100)" opacity="0.2">
    <circle cx="40" cy="40" r="40" fill="white" />
    <circle cx="40" cy="40" r="30" fill="url(#gradient3)" />
  </g>
  
  <g transform="translate(150, 500)" opacity="0.15">
    <path d="M0,0 L20,-20 L40,0 L20,20 Z" fill="white" />
  </g>
  
  <g transform="translate(1750, 500)" opacity="0.15">
    <path d="M0,0 L25,-25 L50,0 L25,25 Z" fill="white" />
  </g>
</svg>